<svg width="1040" height="470" viewBox="0 0 1040 470" fill="none" xmlns="http://www.w3.org/2000/svg">
<path fill-rule="evenodd" clip-rule="evenodd" d="M778.373 70.1106C779.973 69.1602 781.979 68.5524 784.11 68.3583C785.244 68.2794 786.23 68.4248 788.177 69.0309C790.397 69.7098 790.969 69.9793 792.324 71.1598C793.232 71.9286 794.52 73.4718 795.324 74.7401C797.69 78.5029 797.989 78.6996 804.015 80.4796L809.174 81.9993L808.264 85.4172L807.362 88.8078L806.073 88.699C804.558 88.5593 803.383 88.6856 801.859 89.1291C801.121 89.3719 800.044 89.3486 798.64 89.1214C795.84 88.6396 793.865 89.0214 790.924 90.6103C788.19 92.0787 786.007 92.5809 783.266 92.3196C779.75 91.9985 776.324 89.7982 774.456 86.695L773.506 85.0951L776.823 85.8319C780.859 86.7305 781.444 86.6227 784.245 84.3523C787.49 81.7317 787.822 80.1512 785.918 75.8669C784.79 73.2829 784.172 72.8548 780.207 71.7994L777.008 70.9478L778.373 70.1106ZM833.588 75.6439C834.329 74.2893 835.975 73.0583 837.504 72.704C838.75 72.421 841.337 72.9339 842.369 73.6771C843.346 74.4057 844.544 76.3937 844.751 77.7078C844.947 78.8432 844.71 79.9515 841.573 91.7365C838.661 102.674 838.075 104.655 837.487 105.436C836.43 106.765 834.471 107.854 832.988 107.928C832.397 107.946 832.372 107.822 832.694 106.063C833.299 102.359 831.892 98.2951 829.148 95.9542L828.105 95.0323L830.536 85.8996C832.057 80.1849 833.2 76.3312 833.588 75.6439ZM47 102.052C47 100.395 48.3431 99.0518 50 99.0518H99C100.657 99.0518 102 100.395 102 102.052V125.052C102 126.709 100.657 128.052 99 128.052H50C48.3431 128.052 47 126.709 47 125.052V102.052ZM132.5 186.452C148.5 186.452 161.4 191.352 171.2 201.152C181 210.952 185.9 224.252 185.9 241.052V339.452C185.9 340.452 185.5 341.352 184.7 342.152C184.1 342.752 183.3 343.052 182.3 343.052H147.2C146.2 343.052 145.3 342.752 144.5 342.152C143.9 341.352 143.6 340.452 143.6 339.452V249.752C143.6 241.752 141.3 235.252 136.7 230.252C132.3 225.252 126.4 222.752 119 222.752C111.6 222.752 105.6 225.252 101 230.252C96.6 235.252 94.4 241.752 94.4 249.752V339.452C94.4 340.452 94 341.352 93.2 342.152C92.6 342.752 91.8 343.052 90.8 343.052H55.7C54.7 343.052 53.8 342.752 53 342.152C52.4 341.352 52.1 340.452 52.1 339.452V136.652C52.1 135.652 52.4 134.852 53 134.252C53.8 133.452 54.7 133.052 55.7 133.052H90.8C91.8 133.052 92.6 133.452 93.2 134.252C94 134.852 94.4 135.652 94.4 136.652V202.952C94.4 203.552 94.6 203.952 95 204.152C95.4 204.352 95.7 204.252 95.9 203.852C104.1 192.252 116.3 186.452 132.5 186.452ZM277.662 186.452C290.662 186.452 302.262 188.752 312.462 193.352C322.662 197.752 330.562 203.852 336.162 211.652C341.962 219.452 344.862 228.152 344.862 237.752V339.452C344.862 340.452 344.462 341.352 343.662 342.152C343.062 342.752 342.262 343.052 341.262 343.052H306.162C305.162 343.052 304.262 342.752 303.462 342.152C302.862 341.352 302.562 340.452 302.562 339.452V329.552C302.562 328.952 302.362 328.552 301.962 328.352C301.562 328.152 301.162 328.352 300.762 328.952C292.362 339.952 278.862 345.452 260.262 345.452C244.662 345.452 232.062 341.652 222.462 334.052C212.862 326.452 208.062 315.252 208.062 300.452C208.062 285.052 213.462 273.152 224.262 264.752C235.062 256.152 250.462 251.852 270.462 251.852H301.062C302.062 251.852 302.562 251.352 302.562 250.352V243.752C302.562 237.152 300.562 232.052 296.562 228.452C292.562 224.652 286.562 222.752 278.562 222.752C272.362 222.752 267.162 223.852 262.962 226.052C258.962 228.252 256.362 231.352 255.162 235.352C254.562 237.552 253.262 238.552 251.262 238.352L214.962 233.552C212.562 233.152 211.462 232.252 211.662 230.852C212.462 222.452 215.762 214.852 221.562 208.052C227.562 201.252 235.362 195.952 244.962 192.152C254.762 188.352 265.662 186.452 277.662 186.452ZM271.662 313.952C280.262 313.952 287.562 311.652 293.562 307.052C299.562 302.452 302.562 296.552 302.562 289.352V278.552C302.562 277.552 302.062 277.052 301.062 277.052H279.462C270.462 277.052 263.362 278.752 258.162 282.152C253.162 285.552 250.662 290.352 250.662 296.552C250.662 301.952 252.562 306.252 256.362 309.452C260.162 312.452 265.262 313.952 271.662 313.952ZM493.759 201.152C483.959 191.352 471.059 186.452 455.059 186.452C438.859 186.452 426.659 192.252 418.459 203.852C418.259 204.252 417.959 204.352 417.559 204.152C417.159 203.952 416.959 203.552 416.959 202.952V192.452C416.959 191.452 416.559 190.652 415.759 190.052C415.159 189.252 414.359 188.852 413.359 188.852H378.259C377.259 188.852 376.359 189.252 375.559 190.052C374.959 190.652 374.659 191.452 374.659 192.452V339.452C374.659 340.452 374.959 341.352 375.559 342.152C376.359 342.752 377.259 343.052 378.259 343.052H413.359C414.359 343.052 415.159 342.752 415.759 342.152C416.559 341.352 416.959 340.452 416.959 339.452V249.752C416.959 241.752 419.159 235.252 423.559 230.252C428.159 225.252 434.159 222.752 441.559 222.752C448.959 222.752 454.859 225.252 459.259 230.252C463.859 235.252 466.159 241.752 466.159 249.752V339.452C466.159 340.452 466.459 341.352 467.059 342.152C467.859 342.752 468.759 343.052 469.759 343.052H504.859C505.859 343.052 506.659 342.752 507.259 342.152C508.059 341.352 508.459 340.452 508.459 339.452V241.052C508.459 224.252 503.559 210.952 493.759 201.152ZM633.542 136.652C633.542 135.652 633.842 134.852 634.442 134.252C635.242 133.452 636.142 133.052 637.142 133.052H672.242C673.242 133.052 674.042 133.452 674.642 134.252C675.442 134.852 675.842 135.652 675.842 136.652V339.452C675.842 340.452 675.442 341.352 674.642 342.152C674.042 342.752 673.242 343.052 672.242 343.052H637.142C636.142 343.052 635.242 342.752 634.442 342.152C633.842 341.352 633.542 340.452 633.542 339.452V329.552C633.542 328.952 633.342 328.652 632.942 328.652C632.542 328.452 632.142 328.552 631.742 328.952C623.342 339.952 611.842 345.452 597.242 345.452C583.242 345.452 571.142 341.552 560.942 333.752C550.942 325.952 543.742 315.252 539.342 301.652C535.942 291.252 534.242 279.152 534.242 265.352C534.242 251.152 536.042 238.752 539.642 228.152C544.242 215.352 551.442 205.252 561.242 197.852C571.242 190.252 583.542 186.452 598.142 186.452C612.542 186.452 623.742 191.452 631.742 201.452C632.142 202.052 632.542 202.252 632.942 202.052C633.342 201.852 633.542 201.452 633.542 200.852V136.652ZM627.242 296.252C631.242 288.852 633.242 278.752 633.242 265.952C633.242 252.552 631.042 242.052 626.642 234.452C622.042 226.652 615.342 222.752 606.542 222.752C597.142 222.752 590.042 226.652 585.242 234.452C580.242 242.252 577.742 252.852 577.742 266.252C577.742 278.252 579.842 288.252 584.042 296.252C589.042 304.852 596.442 309.152 606.242 309.152C615.242 309.152 622.242 304.852 627.242 296.252ZM709.907 402.75L122.34 415.088C121.988 415.095 121.639 415.084 121.296 415.056L111.414 424.258C110.239 425.352 108.61 425.815 107.035 425.503L55.0282 415.198C52.6869 414.734 51 412.68 51 410.294V385.117C51 382.777 52.6234 380.749 54.9071 380.238L106.777 368.62C108.493 368.235 110.284 368.78 111.495 370.055L121.204 380.275C121.338 380.267 121.473 380.261 121.609 380.258L710.211 367.899C717.737 367.645 723.721 366.962 728.164 365.852C733.164 364.652 737.064 362.352 739.864 358.952C742.864 355.552 745.164 350.552 746.764 343.952C746.964 343.552 746.964 342.952 746.764 342.152L697.564 192.752C697.364 192.352 697.264 191.852 697.264 191.252C697.264 189.452 698.364 188.552 700.564 188.552H738.064C740.264 188.552 741.664 189.552 742.264 191.552L767.464 288.752C767.664 289.352 767.964 289.652 768.364 289.652C768.764 289.652 769.064 289.352 769.264 288.752L792.54 198.971L792.531 198.957L793.027 197.095L794.464 191.552C794.514 191.387 794.568 191.229 794.629 191.077L800.094 170.546C807.342 143.321 808.064 140.608 807.667 138.071C807.619 137.764 807.555 137.46 807.484 137.116C807.316 136.302 804.941 131.882 801.387 125.668C796.473 117.109 795.564 115.298 795.431 114.02C795.292 112.651 795.494 111.669 797.518 104.069C798.754 99.4256 799.933 95.3298 800.154 94.9447C800.73 94.003 802.349 92.9246 803.489 92.7546C804.233 92.6272 806.597 93.1972 814.818 95.4449L825.195 98.2664L826.19 99.4192C827.267 100.712 828.023 103.429 827.655 104.811C827.192 106.552 826.266 107.696 824.566 108.635C822.264 109.946 821.488 109.858 811.843 107.29C803.938 105.186 803.773 105.142 802.975 105.581C801.282 106.491 801.466 109.026 803.332 109.908C803.801 110.151 807.994 111.297 812.624 112.47C822.638 114.988 823.075 115.015 826.845 112.971C828.46 112.128 829.339 111.829 829.989 111.943C832.972 112.412 835.405 112.053 837.477 110.829L838.815 110.031L839.661 111.41C842.542 116.261 849.411 118.031 854.2 115.162L855.327 114.485L856.201 115.872C858.4 119.506 862.782 121.501 867.072 120.838C867.879 120.698 868.553 120.611 868.608 120.625C868.664 120.64 867.983 123.419 867.086 126.79C865.659 132.152 865.325 133.07 864.626 133.919C864.188 134.454 860.878 137.657 857.254 141.043C853.665 144.408 850.271 147.707 849.713 148.358L848.752 149.523L840.632 179.472C836.157 195.949 831.397 209.76 831.185 210C831.165 210.026 831.146 210.052 831.126 210.077L786.064 348.752C781.064 363.352 775.964 374.252 770.764 381.452C765.564 388.852 758.264 394.252 748.864 397.652C741.386 400.357 731.439 401.986 719.023 402.539C719.003 402.541 718.982 402.544 718.962 402.546C718.93 402.55 718.899 402.553 718.867 402.556C718.833 402.559 718.799 402.561 718.764 402.563C718.735 402.564 718.706 402.565 718.676 402.566L718.079 402.578C715.462 402.682 712.738 402.74 709.907 402.75ZM909.596 345.152C896.196 345.152 884.496 343.252 874.496 339.452C864.496 335.652 856.696 330.352 851.096 323.552C845.696 316.752 842.996 309.052 842.996 300.452V297.452C842.996 296.452 843.296 295.652 843.896 295.052C844.696 294.252 845.596 293.852 846.596 293.852H879.896C880.896 293.852 881.696 294.252 882.296 295.052C883.096 295.652 883.496 296.452 883.496 297.452V297.752C883.496 302.152 885.896 305.952 890.696 309.152C895.696 312.152 901.896 313.652 909.296 313.652C916.096 313.652 921.596 312.352 925.796 309.752C929.996 306.952 932.096 303.552 932.096 299.552C932.096 295.952 930.296 293.252 926.696 291.452C923.096 289.652 917.196 287.752 908.996 285.752C899.596 283.352 892.196 281.052 886.796 278.852C873.996 274.452 863.796 269.052 856.196 262.652C848.596 256.252 844.796 247.052 844.796 235.052C844.796 220.252 850.496 208.552 861.896 199.952C873.496 191.152 888.796 186.752 907.796 186.752C920.596 186.752 931.796 188.852 941.396 193.052C950.996 197.052 958.396 202.752 963.596 210.152C968.996 217.552 971.696 225.952 971.696 235.352C971.696 236.352 971.296 237.252 970.496 238.052C969.896 238.652 969.096 238.952 968.096 238.952H935.996C934.996 238.952 934.096 238.652 933.296 238.052C932.696 237.252 932.396 236.352 932.396 235.352C932.396 230.952 930.096 227.252 925.496 224.252C921.096 221.252 915.196 219.752 907.796 219.752C901.196 219.752 895.796 220.952 891.596 223.352C887.396 225.752 885.296 229.052 885.296 233.252C885.296 237.252 887.296 240.252 891.296 242.252C895.496 244.252 902.396 246.352 911.996 248.552C914.196 249.152 916.696 249.852 919.496 250.652C922.296 251.252 925.296 252.052 928.496 253.052C942.696 257.252 953.896 262.652 962.096 269.252C970.296 275.852 974.396 285.452 974.396 298.052C974.396 312.852 968.496 324.452 956.696 332.852C945.096 341.052 929.396 345.152 909.596 345.152ZM819.9 73.0544C819.115 73.2552 817.994 73.8353 817.362 74.3405L816.229 75.2979L814.152 82.7681L812.076 90.2384L817.845 91.7742L823.587 93.3028L825.487 86.1662L827.387 79.0295L827.033 77.5005C826.476 75.3025 825.294 74.0217 823.081 73.3155C821.599 72.8331 821.05 72.8042 819.9 73.0544ZM848.822 84.4135C849.485 83.2431 851.205 82.0612 852.7 81.727C854.229 81.3728 856.717 82.0351 857.895 83.11C859.1 84.1922 859.95 86.0582 859.913 87.6294C859.901 89.3245 855.009 107.699 854.177 109.176C853.429 110.558 851.763 111.754 850.179 112.094C848.712 112.435 846.244 111.808 845.092 110.857C843.994 109.92 842.976 107.805 842.955 106.452C842.917 104.949 848.041 85.6989 848.822 84.4135ZM869.203 88.2578C867.698 88.4134 865.941 89.2927 865.032 90.3976C864.298 91.2856 863.996 92.2007 861.688 100.869C859.024 110.876 859.015 111.02 859.835 113.112C861.024 116.123 865.629 117.524 868.477 115.735C870.265 114.63 870.45 114.152 873.187 103.871C875.575 94.9023 875.729 94.2115 875.499 93.0961C874.838 90.0798 872.138 88.0141 869.203 88.2578ZM896.185 98.105C894.282 98.2133 892.268 98.8485 889.916 100.096C886.705 101.818 885.55 101.979 882.177 101.228L879.332 100.587L878.109 105.181L876.893 109.748L879.447 110.603C882.732 111.683 884.129 112.816 886.079 115.941C887.72 118.574 889.365 120.095 891.874 121.231C895.084 122.701 899.116 122.515 902.252 120.744L903.934 119.815L900.689 118.805C896.693 117.536 896.286 117.194 894.991 113.921C893.445 109.937 893.962 108.435 897.752 105.637C899.981 103.976 900.792 103.899 904.538 104.896C906.178 105.333 907.575 105.588 907.611 105.451C907.749 104.931 905.678 102.154 904.193 100.91C902.804 99.7498 902.239 99.4529 900.011 98.8014C898.385 98.31 896.989 98.0554 896.185 98.105Z" fill="#282828"/>
</svg>
